<svg width="392" height="80" viewBox="0 0 392 80" fill="none" xmlns="http://www.w3.org/2000/svg">
<path fill-rule="evenodd" clip-rule="evenodd" d="M213.234 50.9336C213.234 35.99 201.109 23.8673 186.152 23.8673C171.195 23.8673 159.07 35.99 159.07 50.9336C159.07 65.8773 171.195 78 186.152 78C201.109 78 213.234 65.8773 213.234 50.9336ZM169.486 50.9337C169.486 60.1326 176.948 67.5898 186.152 67.5898C195.356 67.5898 202.818 60.1326 202.818 50.9337C202.818 41.7347 195.356 34.2775 186.152 34.2775C176.948 34.2775 169.486 41.7347 169.486 50.9337Z" fill="black"/>
<path d="M155.18 70.6635C155.666 71.5558 155.442 72.6757 154.604 73.2515C150.247 76.2466 144.968 78 139.28 78C124.323 78 112.198 65.8773 112.198 50.9336C112.198 35.99 124.323 23.8673 139.28 23.8673C144.968 23.8673 150.247 25.6207 154.604 28.6158C155.442 29.1915 155.666 30.3114 155.18 31.2037L152.242 36.5978C151.581 37.8118 149.937 38.0535 148.802 37.2626C146.103 35.381 142.82 34.2775 139.28 34.2775C130.075 34.2775 122.614 41.7347 122.614 50.9337C122.614 60.1326 130.075 67.5898 139.28 67.5899C142.82 67.5899 146.103 66.4863 148.802 64.6047C149.937 63.8138 151.581 64.0554 152.242 65.2695L155.18 70.6635Z" fill="black"/>
<path fill-rule="evenodd" clip-rule="evenodd" d="M245.524 23.8673C251.809 23.8673 257.594 26.008 262.19 29.5991V4.08424C262.19 2.93315 263.124 2 264.276 2H270.52C271.672 2 272.606 2.93315 272.606 4.08424V50.8697L272.606 50.9337C272.606 65.8773 260.481 78 245.524 78C230.567 78 218.442 65.8773 218.442 50.9336C218.442 35.99 230.567 23.8673 245.524 23.8673ZM228.858 50.9337C228.858 60.1326 236.32 67.5898 245.524 67.5898C254.728 67.5898 262.19 60.1326 262.19 50.9337C262.19 41.7347 254.728 34.2775 245.524 34.2775C236.32 34.2775 228.858 41.7347 228.858 50.9337Z" fill="black"/>
<path d="M328.884 53.0173V26.9865C328.884 25.8354 327.95 24.9023 326.798 24.9023H320.554C319.402 24.9023 318.468 25.8354 318.468 26.9865V53.0141C318.468 61.0607 311.94 67.5837 303.886 67.5837C295.832 67.5837 289.303 61.0607 289.303 53.0141L289.303 26.9865C289.303 25.8354 288.369 24.9023 287.217 24.9023H280.973C279.821 24.9023 278.887 25.8354 278.887 26.9865V53.0173C278.887 66.8115 290.079 77.9939 303.886 77.9939C317.692 77.9939 328.884 66.8115 328.884 53.0173Z" fill="black"/>
<path d="M345.525 25.7336C345.131 25.2102 344.514 24.9023 343.858 24.9023H336.189C334.468 24.9023 333.488 26.8658 334.522 28.2394L350.661 49.6751C351.22 50.4172 351.22 51.439 350.661 52.181L334.522 73.6156C333.488 74.9893 334.469 76.9529 336.189 76.9529H343.858C344.514 76.9529 345.131 76.645 345.525 76.1215L356.382 61.7015C357.217 60.5931 358.882 60.5931 359.717 61.7015L370.574 76.1215C370.968 76.645 371.585 76.9529 372.241 76.9529H379.91C381.63 76.9529 382.611 74.9893 381.577 73.6156L365.438 52.181C364.879 51.439 364.879 50.4172 365.438 49.6751L381.577 28.2394C382.611 26.8658 381.63 24.9023 379.91 24.9023H372.241C371.585 24.9023 370.968 25.2102 370.574 25.7336L359.717 40.1537C358.882 41.2621 357.217 41.2621 356.382 40.1537L345.525 25.7336Z" fill="black"/>
<path fill-rule="evenodd" clip-rule="evenodd" d="M70.4011 24.3531C70.4011 27.7188 69.6566 30.9108 68.3233 33.7736C78.4555 35.9055 86.0618 44.8886 86.0618 55.6469C86.0618 67.9922 76.0458 78 63.6905 78H32.3713C20.0159 78 10 67.9922 10 55.6469C10 44.8892 17.6054 35.9065 27.7368 33.774C26.4034 30.9111 25.6589 27.719 25.6589 24.3531C25.6589 12.0078 35.6748 2 48.03 2C60.3852 2 70.4011 12.0078 70.4011 24.3531Z" fill="#495CEF"/>
<path d="M58.3652 31.2163L50.5871 27.0208C48.9701 26.1485 47.0217 26.1505 45.4065 27.0261L37.6725 31.2185C36.112 32.0644 36.112 34.3022 37.6725 35.1481L45.4065 39.3405C47.0217 40.2161 48.9701 40.2181 50.5871 39.3458L58.3652 35.1503C59.931 34.3057 59.931 32.0609 58.3652 31.2163Z" fill="white"/>
</svg>