<svg width="80" height="80" viewBox="0 0 80 80" fill="none" xmlns="http://www.w3.org/2000/svg">
<path d="M67.4065 44.1858C64.7505 44.1998 62.4495 44.8268 60.5215 45.7608C59.8165 44.3768 59.1025 43.1598 58.9825 42.2548C58.8425 41.1978 58.6805 40.5678 58.8495 39.3088C59.0185 38.0498 59.7595 36.2668 59.7485 36.1338C59.7375 35.9998 59.5825 35.3588 58.0505 35.3478C56.5185 35.3368 55.2075 35.6378 55.0535 36.0348C54.8995 36.4328 54.6045 37.3278 54.4205 38.2608C54.1525 39.6268 51.3615 44.4968 49.7775 47.0448C49.2595 46.0508 48.8185 45.1738 48.7265 44.4798C48.5865 43.4228 48.4245 42.7928 48.5935 41.5338C48.7625 40.2748 49.5035 38.4918 49.4925 38.3588C49.4815 38.2248 49.3265 37.5838 47.7945 37.5728C46.2625 37.5618 44.9515 37.8628 44.7975 38.2598C44.6435 38.6578 44.4785 39.5868 44.1645 40.4858C43.8505 41.3848 40.1415 49.5088 39.1695 51.6148C38.6745 52.6878 38.2435 53.5498 37.9395 54.1388L37.9375 54.1358C37.9375 54.1358 37.9185 54.1748 37.8865 54.2408C37.6265 54.7418 37.4715 55.0188 37.4715 55.0188C37.4715 55.0188 37.4735 55.0228 37.4765 55.0288C37.2705 55.3968 37.0485 55.7388 36.9395 55.7388C36.8625 55.7388 36.7095 54.7588 36.9725 53.4148C37.5245 50.5968 38.8505 46.2008 38.8375 46.0498C38.8305 45.9718 39.0845 45.2068 37.9715 44.8058C36.8905 44.4168 36.5055 45.0658 36.4065 45.0678C36.3105 45.0698 36.2395 45.2968 36.2395 45.2968C36.2395 45.2968 37.4445 40.3538 33.9415 40.3538C31.7515 40.3538 28.7185 42.7088 27.2235 44.8428C26.2805 45.3488 24.2625 46.4318 22.1205 47.5878C21.2985 48.0318 20.4585 48.4858 19.6625 48.9168C19.6085 48.8578 19.5545 48.7988 19.4985 48.7408C15.2525 44.2898 7.40247 41.1388 7.73547 35.1518C7.85647 32.9748 8.62647 27.2438 22.8195 20.2908C34.4465 14.5958 43.7545 16.1628 45.3625 19.6358C47.6605 24.5978 40.3875 33.8208 28.3135 35.1508C23.7135 35.6578 21.2905 33.9048 20.6885 33.2528C20.0545 32.5658 19.9595 32.5348 19.7225 32.6638C19.3365 32.8738 19.5815 33.4808 19.7225 33.8418C20.0835 34.7638 21.5625 36.3998 24.0845 37.2138C26.3035 37.9298 31.7045 38.3228 38.2365 35.8388C45.5525 33.0568 51.2655 25.3188 49.5875 18.8508C47.8815 12.2718 36.7845 10.1098 26.2825 13.7768C20.0325 15.9598 13.2665 19.3858 8.40147 23.8588C2.61747 29.1778 1.69447 33.8068 2.07447 35.7408C3.42547 42.6138 13.0615 47.0888 16.9205 50.4058C16.7305 50.5088 16.5515 50.6058 16.3895 50.6938C14.4545 51.6348 7.10947 55.4138 5.27147 59.4058C3.18747 63.9348 5.60347 67.1838 7.20247 67.6218C12.1585 68.9768 17.2435 66.5388 19.9765 62.5318C22.7085 58.5258 22.3755 53.3088 21.1215 50.9278C21.1055 50.8978 21.0885 50.8698 21.0725 50.8398C21.5725 50.5488 22.0815 50.2538 22.5865 49.9618C23.5715 49.3938 24.5375 48.8628 25.3765 48.4148C24.9075 49.6788 24.5635 51.1938 24.3845 53.3828C24.1745 55.9538 25.2465 59.2768 26.6485 60.5838C27.2665 61.1598 28.0095 61.1728 28.4795 61.1728C30.1115 61.1728 30.8565 59.8378 31.6765 58.2598C32.6825 56.3238 33.5745 54.0698 33.5745 54.0698C33.5745 54.0698 32.4545 60.1578 35.5055 60.1578C36.6175 60.1578 37.7355 58.7408 38.2335 58.0178C38.2345 58.0258 38.2355 58.0298 38.2355 58.0298C38.2355 58.0298 38.2645 57.9828 38.3215 57.8888C38.4375 57.7148 38.5025 57.6048 38.5025 57.6048C38.5025 57.6048 38.5045 57.5938 38.5085 57.5738C38.9555 56.8108 39.9465 55.0718 41.4335 52.2038C43.3535 48.4988 45.1965 43.8568 45.1965 43.8568C45.1965 43.8568 45.3675 44.9918 45.9295 46.8678C46.2595 47.9718 46.9615 49.1928 47.5145 50.3628C47.0695 50.9708 46.7955 51.3198 46.7955 51.3198C46.7955 51.3198 46.7985 51.3258 46.8025 51.3378C46.4465 51.8028 46.0475 52.3038 45.6295 52.7928C44.1135 54.5678 42.3085 56.5938 42.0665 57.1788C41.7815 57.8678 41.8495 58.3748 42.3995 58.7828C42.8015 59.0808 43.5175 59.1268 44.2645 59.0778C45.6265 58.9878 46.5855 58.6558 47.0575 58.4538C47.7945 58.1978 48.6535 57.7948 49.4585 57.2128C50.9455 56.1378 51.8425 54.6008 51.7565 52.5648C51.7085 51.4428 51.3445 50.3308 50.8845 49.2808C51.0195 49.0898 51.1545 48.8978 51.2905 48.7028C53.6345 45.3338 55.4525 41.6328 55.4525 41.6328C55.4525 41.6328 55.6235 42.7678 56.1855 44.6438C56.4695 45.5938 57.0295 46.6298 57.5335 47.6458C55.3295 49.4068 53.9625 51.4518 53.4875 52.7938C52.6105 55.2758 53.2975 56.4008 54.5865 56.6568C55.1705 56.7728 55.9955 56.5098 56.6155 56.2518C57.3875 55.9998 58.3155 55.5808 59.1815 54.9548C60.6685 53.8798 62.0985 52.3758 62.0115 50.3398C61.9725 49.4128 61.7165 48.4928 61.3695 47.6088C63.2375 46.8438 65.6565 46.4188 68.7375 46.7718C75.3475 47.5308 76.6445 51.5878 76.3965 53.2858C76.1485 54.9838 74.7625 55.9168 74.2985 56.1988C73.8355 56.4808 73.6935 56.5788 73.7325 56.7878C73.7885 57.0928 74.0035 57.0808 74.3985 57.0148C74.9425 56.9248 77.8695 55.6338 77.9945 52.4988C78.1545 48.5208 74.2765 44.1498 67.4065 44.1858ZM16.4585 61.0708C14.2695 63.4188 11.2105 64.3058 9.89847 63.5588C8.48247 62.7518 9.04347 59.2948 11.7295 56.8038C13.3675 55.2858 15.4815 53.8868 16.8835 53.0258C17.2025 52.8368 17.6715 52.5598 18.2415 52.2238C18.3355 52.1708 18.3895 52.1418 18.3895 52.1418L18.3875 52.1388C18.4975 52.0738 18.6105 52.0078 18.7265 51.9388C19.7045 55.4838 18.7565 58.6058 16.4585 61.0708ZM32.4085 50.4118C31.6465 52.2388 30.0495 56.9148 29.0785 56.6638C28.2445 56.4488 27.7365 52.8948 28.9125 49.3968C29.5035 47.6358 30.7675 45.5328 31.5095 44.7158C32.7045 43.4018 34.0205 42.9718 34.3395 43.5048C34.7475 44.1838 32.8865 49.2658 32.4085 50.4118ZM45.5865 56.5928C45.2635 56.7588 44.9665 56.8638 44.8295 56.7828C44.7285 56.7238 44.9625 56.5048 44.9625 56.5048C44.9625 56.5048 46.6105 54.7618 47.2605 53.9678C47.6385 53.5058 48.0765 52.9588 48.5535 52.3458C48.5575 52.4068 48.5595 52.4678 48.5595 52.5278C48.5535 54.6158 46.5015 56.0258 45.5865 56.5928ZM55.7375 54.3178C55.4965 54.1488 55.5365 53.6038 56.3295 51.9058C56.6405 51.2388 57.3515 50.1168 58.5865 49.0438C58.7295 49.4848 58.8165 49.9078 58.8145 50.3018C58.7985 52.9288 56.8915 53.9098 55.7375 54.3178Z" fill="#CC6698"/>
</svg>
