<svg width="80" height="80" viewBox="0 0 80 80" fill="none" xmlns="http://www.w3.org/2000/svg">
<path d="M5.562 2H74.437C76.405 2 78 3.595 78 5.562V74.437C78 76.405 76.405 78 74.438 78H5.562C3.595 78 2 76.405 2 74.438V5.562C2 3.595 3.595 2 5.562 2Z" fill="#3178C6"/>
<path fill-rule="evenodd" clip-rule="evenodd" d="M46.093 61.059V69.387C47.442 70.081 49.038 70.601 50.88 70.948C52.722 71.295 54.664 71.469 56.705 71.469C58.694 71.469 60.584 71.278 62.374 70.897C64.165 70.515 65.734 69.886 67.084 69.01C68.433 68.134 69.501 66.989 70.288 65.575C71.075 64.161 71.468 62.413 71.468 60.331C71.468 58.822 71.243 57.499 70.794 56.362C70.344 55.226 69.696 54.215 68.848 53.33C68.001 52.445 66.984 51.651 65.8 50.949C64.615 50.246 63.279 49.583 61.791 48.958C60.701 48.507 59.724 48.069 58.859 47.644C57.994 47.219 57.259 46.785 56.654 46.343C56.049 45.901 55.582 45.432 55.253 44.938C54.924 44.444 54.76 43.884 54.76 43.259C54.76 42.686 54.907 42.17 55.201 41.711C55.495 41.251 55.91 40.857 56.446 40.527C56.982 40.197 57.639 39.942 58.418 39.759C59.196 39.577 60.061 39.486 61.013 39.486C61.705 39.486 62.436 39.538 63.206 39.642C63.976 39.746 64.75 39.907 65.528 40.123C66.306 40.34 67.063 40.613 67.798 40.943C68.533 41.273 69.212 41.654 69.835 42.088V34.307C68.572 33.821 67.193 33.461 65.697 33.227C64.201 32.993 62.484 32.876 60.547 32.876C58.575 32.876 56.707 33.089 54.943 33.514C53.179 33.939 51.626 34.603 50.286 35.505C48.945 36.407 47.886 37.557 47.108 38.953C46.33 40.35 45.94 42.019 45.94 43.963C45.94 46.444 46.654 48.561 48.081 50.313C49.508 52.065 51.675 53.549 54.581 54.763C55.723 55.231 56.786 55.691 57.772 56.142C58.758 56.593 59.61 57.061 60.328 57.547C61.046 58.033 61.612 58.562 62.027 59.134C62.443 59.707 62.65 60.357 62.65 61.086C62.65 61.624 62.521 62.123 62.261 62.582C62.002 63.042 61.608 63.441 61.08 63.779C60.552 64.117 59.895 64.382 59.108 64.573C58.321 64.764 57.4 64.859 56.345 64.859C54.546 64.859 52.764 64.543 51 63.909C49.233 63.276 47.598 62.326 46.093 61.059ZM32.105 40.329H42.969V33.469H12.688V40.329H23.499V70.875H32.105V40.329Z" fill="white"/>
</svg>
